<?xml version="1.0" encoding="UTF-8" standalone="no"?>
<svg
   xmlns:dc="http://purl.org/dc/elements/1.1/"
   xmlns:cc="http://creativecommons.org/ns#"
   xmlns:rdf="http://www.w3.org/1999/02/22-rdf-syntax-ns#"
   xmlns:svg="http://www.w3.org/2000/svg"
   xmlns="http://www.w3.org/2000/svg"
   xmlns:xlink="http://www.w3.org/1999/xlink"
   xmlns:sodipodi="http://sodipodi.sourceforge.net/DTD/sodipodi-0.dtd"
   xmlns:inkscape="http://www.inkscape.org/namespaces/inkscape"
   width="32"
   viewBox="0 0 32 32.001812"
   version="1.0"
   style="display:inline;enable-background:new"
   id="svg11300"
   height="32.001812"
   inkscape:version="0.91 r13725"
   sodipodi:docname="application-x-bittorrent.svg">
  <sodipodi:namedview
     pagecolor="#ffffff"
     bordercolor="#666666"
     borderopacity="1"
     objecttolerance="10"
     gridtolerance="10"
     guidetolerance="10"
     inkscape:pageopacity="0"
     inkscape:pageshadow="2"
     inkscape:window-width="1920"
     inkscape:window-height="1026"
     id="namedview40"
     showgrid="false"
     inkscape:zoom="7.3745824"
     inkscape:cx="16.271202"
     inkscape:cy="16.000906"
     inkscape:window-x="0"
     inkscape:window-y="0"
     inkscape:window-maximized="1"
     inkscape:current-layer="svg11300" />
  <metadata
     id="metadata155">
    <rdf:RDF>
      <cc:Work
         rdf:about="">
        <dc:format>image/svg+xml</dc:format>
        <dc:type
           rdf:resource="http://purl.org/dc/dcmitype/StillImage" />
        <dc:title>elementary Icon Template</dc:title>
      </cc:Work>
    </rdf:RDF>
  </metadata>
  <title
     id="title4162">elementary Icon Template</title>
  <defs
     id="defs3">
    <linearGradient
       id="linearGradient10457">
      <stop
         style="stop-color:#000000;stop-opacity:1;"
         offset="0"
         id="stop10453" />
      <stop
         style="stop-color:#000000;stop-opacity:0;"
         offset="1"
         id="stop10455" />
    </linearGradient>
    <linearGradient
       id="linearGradient3600">
      <stop
         style="stop-color:#f4f4f4;stop-opacity:1"
         offset="0"
         id="stop3602" />
      <stop
         style="stop-color:#dbdbdb;stop-opacity:1"
         offset="1"
         id="stop3604" />
    </linearGradient>
    <linearGradient
       id="linearGradient5048">
      <stop
         style="stop-color:#000000;stop-opacity:0"
         offset="0"
         id="stop5050" />
      <stop
         style="stop-color:#000000;stop-opacity:1"
         offset="0.5"
         id="stop5056" />
      <stop
         style="stop-color:#000000;stop-opacity:0"
         offset="1"
         id="stop5052" />
    </linearGradient>
    <linearGradient
       id="linearGradient3977-5">
      <stop
         style="stop-color:#ffffff;stop-opacity:1"
         offset="0"
         id="stop3979-6" />
      <stop
         style="stop-color:#ffffff;stop-opacity:0.23529412"
         offset="0"
         id="stop3981-2" />
      <stop
         style="stop-color:#ffffff;stop-opacity:0.15686275"
         offset="0.99999994"
         id="stop3983-9" />
      <stop
         style="stop-color:#ffffff;stop-opacity:0.39215687"
         offset="1"
         id="stop3985-1" />
    </linearGradient>
    <linearGradient
       y2="41.814808"
       y1="6.1851754"
       x2="23.99999"
       x1="23.99999"
       id="linearGradient3013-9"
       xlink:href="#linearGradient3977-5"
       gradientUnits="userSpaceOnUse"
       gradientTransform="matrix(0.56756757,0,0,0.72972971,2.378409,-2.51349)" />
    <linearGradient
       y2="47.013336"
       y1="0.98520643"
       x2="25.132275"
       x1="25.132275"
       id="linearGradient3016-3"
       xlink:href="#linearGradient3600"
       gradientUnits="userSpaceOnUse"
       gradientTransform="matrix(0.62856997,0,0,0.60839392,0.914347,-0.53477)" />
    <linearGradient
       y2="609.50507"
       y1="366.64789"
       x2="302.85715"
       x1="302.85715"
       id="linearGradient3027-6"
       xlink:href="#linearGradient5048"
       gradientUnits="userSpaceOnUse"
       gradientTransform="matrix(0.04576928,0,0,0.00823529,-0.542297,25.98057)" />
    <linearGradient
       id="linearGradient3104-6">
      <stop
         style="stop-color:#000000;stop-opacity:0.31782946"
         offset="0"
         id="stop3106-3" />
      <stop
         style="stop-color:#000000;stop-opacity:0.24031007"
         offset="1"
         id="stop3108-9" />
    </linearGradient>
    <linearGradient
       y2="2.9062471"
       y1="50.786446"
       x2="-51.786404"
       x1="-51.786404"
       id="linearGradient3148"
       xlink:href="#linearGradient3104-6"
       gradientUnits="userSpaceOnUse"
       gradientTransform="matrix(0.53064141,0,0,0.58970049,39.26963,-1.7919)" />
    <radialGradient
       r="117.14286"
       id="radialGradient7070"
       xlink:href="#linearGradient10457"
       gradientUnits="userSpaceOnUse"
       gradientTransform="matrix(-0.01253114,0,0,0.00823569,12.55202,25.98214)"
       fy="486.64789"
       fx="605.71429"
       cy="486.64789"
       cx="605.71429" />
    <radialGradient
       r="117.14286"
       id="radialGradient7074"
       xlink:href="#linearGradient10457"
       gradientUnits="userSpaceOnUse"
       gradientTransform="matrix(0.01253114,0,0,0.00823569,19.44798,25.98216)"
       fy="486.64789"
       fx="605.71429"
       cy="486.64789"
       cx="605.71429" />
  </defs>
  <path
     inkscape:connector-curvature="0"
     d="M 5.000027,1.00002 C 10.041343,1.00002 27,1.00181 27,1.00181 l 3e-5,27.99821 -22.000003,0 z"
     id="path4160-3-8"
     style="display:inline;fill:#fafafa;fill-opacity:1;stroke:none" />
  <path
     inkscape:connector-curvature="0"
     d="m 4.499988,0.49996 c 5.27048,0 23.000052,0.002 23.000052,0.002 l 3e-5,28.99812 -23.000082,0 0,-28.99996 z"
     id="path4160-6-1"
     style="display:inline;fill:none;stroke:url(#linearGradient3148);stroke-width:0.9999218;stroke-linecap:butt;stroke-linejoin:round;stroke-miterlimit:4;stroke-dasharray:none;stroke-dashoffset:0;stroke-opacity:1" />
  <path
     inkscape:connector-curvature="0"
     d="m 9,17.00181 7,9.00001 7,-9.00001 -4,8.6e-4 0,-3.00086 c 0,1 -1,1 -1,1 0,0 -1,0 -1,-1 0,-1 -1,-1 -1,-1 0,0 -1,0 -1,1 0,1 -1,1 -1,1 0,0 -1,0 -1,-1.00085 l 0,3.00085 z"
     id="path26667"
     style="color:#bebebe;display:inline;overflow:visible;visibility:visible;fill:#3689e6;fill-opacity:1;fill-rule:nonzero;stroke:none;stroke-width:1;marker:none;enable-background:accumulate" />
  <path
     inkscape:connector-curvature="0"
     d="m 16,5.00181 c 0,0 -1,0 -1,1 0,1 -1,1 -1,1 0,0 -1,8.5e-4 -1,-1 l 0,14 6,0 0,-14 c 0,1 -1,1 -1,1 0,0 -1,0 -1,-1 0,-1 -1,-1 -1,-1 z"
     id="path10362"
     style="color:#bebebe;display:inline;overflow:visible;visibility:visible;opacity:0.2;fill:#3689e6;fill-opacity:1;fill-rule:nonzero;stroke:none;stroke-width:1;marker:none;enable-background:accumulate" />
  <path
     inkscape:connector-curvature="0"
     d="m 14,9.00181 c 0,0 -1,-8.5e-4 -1,1 l 0,6 6,0 0,-6 c 0,-1 -1,-1 -1,-1 0,0 -1,0 -1,1 0,1 -1,1 -1,1 0,0 -1,0 -1,-1 0,-1 -1,-1 -1,-1 z"
     id="path10323"
     style="color:#bebebe;display:inline;overflow:visible;visibility:visible;opacity:0.5;fill:#3689e6;fill-opacity:1;fill-rule:nonzero;stroke:none;stroke-width:1;marker:none;enable-background:accumulate" />
</svg>
