<?xml version="1.0" encoding="UTF-8" standalone="no"?>
<svg
   xmlns:dc="http://purl.org/dc/elements/1.1/"
   xmlns:cc="http://creativecommons.org/ns#"
   xmlns:rdf="http://www.w3.org/1999/02/22-rdf-syntax-ns#"
   xmlns:svg="http://www.w3.org/2000/svg"
   xmlns="http://www.w3.org/2000/svg"
   xmlns:xlink="http://www.w3.org/1999/xlink"
   xmlns:sodipodi="http://sodipodi.sourceforge.net/DTD/sodipodi-0.dtd"
   xmlns:inkscape="http://www.inkscape.org/namespaces/inkscape"
   width="64"
   viewBox="0 0 64 64.000282"
   version="1.0"
   style="display:inline;enable-background:new"
   id="svg11300"
   height="64.000282"
   inkscape:version="0.91 r13725"
   sodipodi:docname="application-x-bittorrent.svg">
  <sodipodi:namedview
     pagecolor="#ffffff"
     bordercolor="#666666"
     borderopacity="1"
     objecttolerance="10"
     gridtolerance="10"
     guidetolerance="10"
     inkscape:pageopacity="0"
     inkscape:pageshadow="2"
     inkscape:window-width="1920"
     inkscape:window-height="1026"
     id="namedview40"
     showgrid="false"
     inkscape:zoom="5.2148895"
     inkscape:cx="29.559871"
     inkscape:cy="18.572528"
     inkscape:window-x="0"
     inkscape:window-y="0"
     inkscape:window-maximized="1"
     inkscape:current-layer="svg11300" />
  <metadata
     id="metadata155">
    <rdf:RDF>
      <cc:Work
         rdf:about="">
        <dc:format>image/svg+xml</dc:format>
        <dc:type
           rdf:resource="http://purl.org/dc/dcmitype/StillImage" />
        <dc:title>elementary Icon Template</dc:title>
      </cc:Work>
    </rdf:RDF>
  </metadata>
  <title
     id="title4162">elementary Icon Template</title>
  <defs
     id="defs3">
    <linearGradient
       id="linearGradient10457">
      <stop
         style="stop-color:#000000;stop-opacity:1;"
         offset="0"
         id="stop10453" />
      <stop
         style="stop-color:#000000;stop-opacity:0;"
         offset="1"
         id="stop10455" />
    </linearGradient>
    <linearGradient
       id="linearGradient3977">
      <stop
         style="stop-color:#ffffff;stop-opacity:1"
         offset="0"
         id="stop3979" />
      <stop
         style="stop-color:#ffffff;stop-opacity:0.23529412"
         offset="0"
         id="stop3981" />
      <stop
         style="stop-color:#ffffff;stop-opacity:0.15686275"
         offset="1"
         id="stop3983" />
      <stop
         style="stop-color:#ffffff;stop-opacity:0.39215687"
         offset="1"
         id="stop3985" />
    </linearGradient>
    <linearGradient
       id="linearGradient3600">
      <stop
         style="stop-color:#f4f4f4;stop-opacity:1"
         offset="0"
         id="stop3602" />
      <stop
         style="stop-color:#dbdbdb;stop-opacity:1"
         offset="1"
         id="stop3604" />
    </linearGradient>
    <linearGradient
       id="linearGradient5048">
      <stop
         style="stop-color:#000000;stop-opacity:0"
         offset="0"
         id="stop5050" />
      <stop
         style="stop-color:#000000;stop-opacity:1"
         offset="0.5"
         id="stop5056" />
      <stop
         style="stop-color:#000000;stop-opacity:0"
         offset="1"
         id="stop5052" />
    </linearGradient>
    <linearGradient
       id="linearGradient3104-6">
      <stop
         style="stop-color:#000000;stop-opacity:0.31782946"
         offset="0"
         id="stop3106-3" />
      <stop
         style="stop-color:#000000;stop-opacity:0.24031007"
         offset="1"
         id="stop3108-9" />
    </linearGradient>
    <linearGradient
       y2="2.9062471"
       y1="50.786446"
       x2="-51.786404"
       x1="-51.786404"
       id="linearGradient3033"
       xlink:href="#linearGradient3104-6"
       gradientUnits="userSpaceOnUse"
       gradientTransform="matrix(1.0843523,0,0,1.1997367,79.65086,-4.1628)" />
    <linearGradient
       y2="42.175503"
       y1="5.8641062"
       x2="23.99999"
       x1="23.99999"
       id="linearGradient3093"
       xlink:href="#linearGradient3977"
       gradientUnits="userSpaceOnUse"
       gradientTransform="matrix(1.2162162,0,0,1.5405376,2.91082,-6.97289)" />
    <linearGradient
       y2="47.013336"
       y1="0.98520643"
       x2="25.132275"
       x1="25.132275"
       id="linearGradient3096"
       xlink:href="#linearGradient3600"
       gradientUnits="userSpaceOnUse"
       gradientTransform="matrix(1.3142827,0,0,1.2602393,0.55721,-2.17926)" />
    <radialGradient
       r="117.14286"
       id="radialGradient3153"
       xlink:href="#linearGradient10457"
       gradientUnits="userSpaceOnUse"
       gradientTransform="matrix(0.03132633,0,0,0.02058823,35.32086,49.45148)"
       fy="486.64789"
       fx="605.71429"
       cy="486.64789"
       cx="605.71429" />
    <radialGradient
       r="117.14286"
       id="radialGradient3156"
       xlink:href="#linearGradient10457"
       gradientUnits="userSpaceOnUse"
       gradientTransform="matrix(-0.03132632,0,0,0.02058823,28.87914,49.45148)"
       fy="486.64789"
       fx="605.71429"
       cy="486.64789"
       cx="605.71429" />
    <linearGradient
       y2="609.50507"
       y1="366.64789"
       x2="302.85715"
       x1="302.85715"
       id="linearGradient3842"
       xlink:href="#linearGradient5048"
       gradientUnits="userSpaceOnUse"
       gradientTransform="matrix(0.09153846,0,0,0.02058823,-0.98462,49.45148)" />
  </defs>
  <path
     inkscape:connector-curvature="0"
     d="m 9.1,0.99994 c 10.54093,0 45.99994,0.004 45.99994,0.004 l 6e-5,57.99614 -46,0 0,-57.99982 z"
     id="path4160-6"
     style="display:inline;fill:#fafafa;fill-opacity:1;stroke:none" />
  <path
     inkscape:connector-curvature="0"
     d="m 8.59997,0.49996 c 10.77009,0 47.00003,0.004 47.00003,0.004 l 5e-5,58.99622 -47.00008,0 0,-58.99997 z"
     id="path4160-6-1-7"
     style="display:inline;fill:none;stroke:url(#linearGradient3033);stroke-width:0.9999218;stroke-linecap:butt;stroke-linejoin:round;stroke-miterlimit:4;stroke-dasharray:none;stroke-dashoffset:0;stroke-opacity:1" />
  <path
     inkscape:connector-curvature="0"
     d="m 32,10.35576 c 0,0 -2,0 -2,1.91113 0,1.91113 -2,1.91113 -2,1.91113 0,0 -2,0.002 -2,-1.91113 l 0,26.75584 12,0 0,-26.75584 c 0,1.91113 -2,1.91113 -2,1.91113 0,0 -2,0 -2,-1.91113 0,-1.91113 -2,-1.91113 -2,-1.91113 z"
     id="path10554"
     style="color:#bebebe;display:inline;overflow:visible;visibility:visible;opacity:0.2;fill:#3689e6;fill-opacity:1;fill-rule:nonzero;stroke:none;stroke-width:0.99999994;marker:none;enable-background:accumulate" />
  <path
     inkscape:connector-curvature="0"
     d="m 18,34.00028 14,17.28906 14,-17.28906 -8,0.002 0,-5.73502 c 0,1.91113 -2,1.91113 -2,1.91113 0,0 -2,0 -2,-1.91113 0,-1.91113 -2,-1.91113 -2,-1.91113 0,0 -2,0 -2,1.91113 0,1.91113 -2,1.91113 -2,1.91113 0,0 -2,0 -2,-1.91276 l 0,5.73465 z"
     id="path10518"
     style="color:#bebebe;display:inline;overflow:visible;visibility:visible;fill:#3689e6;fill-opacity:1;fill-rule:nonzero;stroke:none;stroke-width:0.99999994;marker:none;enable-background:accumulate" />
  <path
     inkscape:connector-curvature="0"
     d="m 28,19.00027 c 0,0 -2,-0.002 -2,1.91113 l 0,13.08888 12,0 0,-13.08888 c 0,-1.91113 -2,-1.91113 -2,-1.91113 0,0 -2,0 -2,1.91113 0,1.91113 -2,1.91113 -2,1.91113 0,0 -2,0 -2,-1.91113 0,-1.91113 -2,-1.91113 -2,-1.91113 z"
     id="path10536"
     style="color:#bebebe;display:inline;overflow:visible;visibility:visible;opacity:0.5;fill:#3689e6;fill-opacity:1;fill-rule:nonzero;stroke:none;stroke-width:0.99999994;marker:none;enable-background:accumulate" />
</svg>
