<?xml version="1.0" encoding="UTF-8" standalone="no"?>
<svg
   xmlns:dc="http://purl.org/dc/elements/1.1/"
   xmlns:cc="http://creativecommons.org/ns#"
   xmlns:rdf="http://www.w3.org/1999/02/22-rdf-syntax-ns#"
   xmlns:svg="http://www.w3.org/2000/svg"
   xmlns="http://www.w3.org/2000/svg"
   xmlns:xlink="http://www.w3.org/1999/xlink"
   xmlns:sodipodi="http://sodipodi.sourceforge.net/DTD/sodipodi-0.dtd"
   xmlns:inkscape="http://www.inkscape.org/namespaces/inkscape"
   width="64"
   height="64"
   id="svg4017"
   version="1.1"
   inkscape:version="0.91 r13725"
   sodipodi:docname="x-office-document-template.svg">
  <sodipodi:namedview
     pagecolor="#ffffff"
     bordercolor="#666666"
     borderopacity="1"
     objecttolerance="10"
     gridtolerance="10"
     guidetolerance="10"
     inkscape:pageopacity="0"
     inkscape:pageshadow="2"
     inkscape:window-width="1920"
     inkscape:window-height="1026"
     id="namedview100"
     showgrid="false"
     inkscape:zoom="7.375"
     inkscape:cx="38.802005"
     inkscape:cy="26.293511"
     inkscape:window-x="0"
     inkscape:window-y="0"
     inkscape:window-maximized="1"
     inkscape:current-layer="svg4017" />
  <defs
     id="defs4019">
    <radialGradient
       xlink:href="#linearGradient5060"
       id="radialGradient3153"
       gradientUnits="userSpaceOnUse"
       gradientTransform="matrix(0.03132633,0,0,0.02058823,35.220859,49.45142)"
       cx="605.71429"
       cy="486.64789"
       fx="605.71429"
       fy="486.64789"
       r="117.14286" />
    <linearGradient
       id="linearGradient5060">
      <stop
         id="stop5062"
         style="stop-color:#000000;stop-opacity:1"
         offset="0" />
      <stop
         id="stop5064"
         style="stop-color:#000000;stop-opacity:0"
         offset="1" />
    </linearGradient>
    <radialGradient
       xlink:href="#linearGradient5060"
       id="radialGradient3156"
       gradientUnits="userSpaceOnUse"
       gradientTransform="matrix(-0.03132632,0,0,0.02058823,28.779136,49.45142)"
       cx="605.71429"
       cy="486.64789"
       fx="605.71429"
       fy="486.64789"
       r="117.14286" />
    <linearGradient
       id="linearGradient5048">
      <stop
         id="stop5050"
         style="stop-color:#000000;stop-opacity:0"
         offset="0" />
      <stop
         id="stop5056"
         style="stop-color:#000000;stop-opacity:1"
         offset="0.5" />
      <stop
         id="stop5052"
         style="stop-color:#000000;stop-opacity:0"
         offset="1" />
    </linearGradient>
    <linearGradient
       y2="609.50507"
       x2="302.85715"
       y1="366.64789"
       x1="302.85715"
       gradientTransform="matrix(0.09153846,0,0,0.02058823,-1.084616,49.45142)"
       gradientUnits="userSpaceOnUse"
       id="linearGradient4015"
       xlink:href="#linearGradient5048" />
    <linearGradient
       id="linearGradient3104">
      <stop
         offset="0"
         style="stop-color:#a0a0a0;stop-opacity:1;"
         id="stop3106" />
      <stop
         offset="1"
         style="stop-color:#bebebe;stop-opacity:1;"
         id="stop3108" />
    </linearGradient>
    <linearGradient
       id="linearGradient3600-9">
      <stop
         offset="0"
         style="stop-color:#f4f4f4;stop-opacity:1"
         id="stop3602-3" />
      <stop
         offset="1"
         style="stop-color:#dbdbdb;stop-opacity:1"
         id="stop3604-7" />
    </linearGradient>
    <linearGradient
       id="linearGradient3977-4">
      <stop
         id="stop3979-7"
         style="stop-color:#ffffff;stop-opacity:1;"
         offset="0" />
      <stop
         offset="0.03626217"
         style="stop-color:#ffffff;stop-opacity:0.23529412;"
         id="stop3981-6" />
      <stop
         id="stop3983-5"
         style="stop-color:#ffffff;stop-opacity:0.15686275;"
         offset="0.95056331" />
      <stop
         id="stop3985-6"
         style="stop-color:#ffffff;stop-opacity:0.39215687;"
         offset="1" />
    </linearGradient>
    <linearGradient
       xlink:href="#linearGradient3977-4"
       id="linearGradient3093"
       gradientUnits="userSpaceOnUse"
       gradientTransform="matrix(1.2162162,0,0,1.5405376,2.8108184,-6.97295)"
       x1="23.99999"
       y1="5.5641499"
       x2="23.99999"
       y2="43" />
    <linearGradient
       xlink:href="#linearGradient3600-9"
       id="linearGradient3096"
       gradientUnits="userSpaceOnUse"
       gradientTransform="matrix(1.3428567,0,0,1.2819685,-0.22855506,-2.73405)"
       x1="25.132275"
       y1="0.98520643"
       x2="25.132275"
       y2="47.013336" />
    <linearGradient
       xlink:href="#linearGradient3104"
       id="linearGradient3098"
       gradientUnits="userSpaceOnUse"
       gradientTransform="matrix(1.0843525,0,0,1.1997316,79.550873,-4.16278)"
       x1="-51.786404"
       y1="50.786446"
       x2="-51.786404"
       y2="2.9062471" />
    <linearGradient
       y2="43"
       x2="23.99999"
       y1="5.5641499"
       x1="23.99999"
       gradientTransform="matrix(0.89189189,0,0,1.1351351,2.5945996,-4.74319)"
       gradientUnits="userSpaceOnUse"
       id="linearGradient3066"
       xlink:href="#linearGradient3977-6" />
    <linearGradient
       id="linearGradient3977-6">
      <stop
         offset="0"
         style="stop-color:#ffffff;stop-opacity:1;"
         id="stop3979-9" />
      <stop
         id="stop3981-3"
         style="stop-color:#ffffff;stop-opacity:0.23529412;"
         offset="0.03626217" />
      <stop
         offset="0.95056331"
         style="stop-color:#ffffff;stop-opacity:0.15686275;"
         id="stop3983-7" />
      <stop
         offset="1"
         style="stop-color:#ffffff;stop-opacity:0.39215687;"
         id="stop3985-4" />
    </linearGradient>
    <linearGradient
       id="linearGradient2867-449-88-871-390-598-476-591-434-148-57-177-8">
      <stop
         offset="0"
         style="stop-color:#90dbec;stop-opacity:1;"
         id="stop3750-1" />
      <stop
         offset="0.26238"
         style="stop-color:#55c1ec;stop-opacity:1;"
         id="stop3752-3" />
      <stop
         offset="0.704952"
         style="stop-color:#3689e6;stop-opacity:1;"
         id="stop3754-1" />
      <stop
         offset="1"
         style="stop-color:#2b63a0;stop-opacity:1;"
         id="stop3756-1" />
    </linearGradient>
    <linearGradient
       id="linearGradient3707-319-631-407-324-3">
      <stop
         offset="0"
         style="stop-color:#185f9a;stop-opacity:1;"
         id="stop3760-4" />
      <stop
         offset="1"
         style="stop-color:#599ec9;stop-opacity:1;"
         id="stop3762-0" />
    </linearGradient>
    <radialGradient
       r="12.671875"
       fy="9.9571075"
       fx="7.2758255"
       cy="9.9571075"
       cx="7.8060555"
       gradientTransform="matrix(-1.6167311e-7,6.6018653,-8.0922115,-1.9817023e-7,104.56429,-60.07292)"
       gradientUnits="userSpaceOnUse"
       id="radialGradient3087"
       xlink:href="#linearGradient2867-449-88-871-390-598-476-591-434-148-57-177-8" />
    <linearGradient
       y2="0.91790956"
       x2="25"
       y1="47.935162"
       x1="25"
       gradientTransform="translate(6.3079523e-7,-4.2e-4)"
       gradientUnits="userSpaceOnUse"
       id="linearGradient3089"
       xlink:href="#linearGradient3707-319-631-407-324-3" />
    <linearGradient
       xlink:href="#linearGradient3104-5-3"
       id="linearGradient3030"
       gradientUnits="userSpaceOnUse"
       gradientTransform="matrix(1.2586111,0,0,1,-13.884583,985.31513)"
       x1="22.004084"
       y1="47.813133"
       x2="22.004084"
       y2="3.3638515" />
    <linearGradient
       id="linearGradient3104-5-3">
      <stop
         id="stop3106-2-94"
         style="stop-color:#aaaaaa;stop-opacity:1"
         offset="0" />
      <stop
         id="stop3108-5-9"
         style="stop-color:#c8c8c8;stop-opacity:1"
         offset="1" />
    </linearGradient>
    <linearGradient
       id="linearGradient3104-5-2-4">
      <stop
         id="stop3106-2-9-9"
         style="stop-color:#aaaaaa;stop-opacity:1"
         offset="0" />
      <stop
         id="stop3108-5-3-4"
         style="stop-color:#c8c8c8;stop-opacity:1"
         offset="1" />
    </linearGradient>
    <linearGradient
       y2="3.3638515"
       x2="22.004084"
       y1="47.813133"
       x1="22.004084"
       gradientTransform="matrix(1.2586111,0,0,1,-13.884582,985.31513)"
       gradientUnits="userSpaceOnUse"
       id="linearGradient3052"
       xlink:href="#linearGradient3104-5-2-4" />
    <linearGradient
       id="linearGradient6240">
      <stop
         id="stop6242"
         style="stop-color:#ffffff;stop-opacity:1"
         offset="0" />
      <stop
         id="stop6244"
         style="stop-color:#ffffff;stop-opacity:0"
         offset="1" />
    </linearGradient>
    <linearGradient
       id="linearGradient3412">
      <stop
         id="stop3414"
         style="stop-color:#f0f0f1;stop-opacity:1"
         offset="0" />
      <stop
         id="stop3416"
         style="stop-color:#cbcdd9;stop-opacity:1"
         offset="1" />
    </linearGradient>
    <linearGradient
       id="linearGradient22122">
      <stop
         id="stop22124"
         style="stop-color:#000000;stop-opacity:1"
         offset="0" />
      <stop
         id="stop22126"
         style="stop-color:#000000;stop-opacity:0"
         offset="1" />
    </linearGradient>
    <linearGradient
       id="linearGradient22140">
      <stop
         id="stop22142"
         style="stop-color:#000000;stop-opacity:0"
         offset="0" />
      <stop
         id="stop22148"
         style="stop-color:#000000;stop-opacity:1"
         offset="0.5" />
      <stop
         id="stop22144"
         style="stop-color:#000000;stop-opacity:0"
         offset="1" />
    </linearGradient>
    <linearGradient
       id="linearGradient5060-5">
      <stop
         id="stop5062-5"
         style="stop-color:#000000;stop-opacity:1"
         offset="0" />
      <stop
         id="stop5064-3"
         style="stop-color:#000000;stop-opacity:0"
         offset="1" />
    </linearGradient>
    <radialGradient
       xlink:href="#linearGradient5060-5"
       id="radialGradient3155"
       gradientUnits="userSpaceOnUse"
       gradientTransform="matrix(0.04016195,0,0,0.02225161,48.013776,1032.7998)"
       cx="605.71429"
       cy="486.64789"
       fx="605.71429"
       fy="486.64789"
       r="117.14286" />
    <radialGradient
       xlink:href="#linearGradient22122"
       id="radialGradient3157"
       gradientUnits="userSpaceOnUse"
       gradientTransform="matrix(0,-1.000001,1.142856,0,-41.10259,45.50001)"
       cx="7"
       cy="39.464806"
       fx="7"
       fy="39.464806"
       r="3.5" />
    <radialGradient
       xlink:href="#linearGradient22122"
       id="radialGradient3159"
       gradientUnits="userSpaceOnUse"
       gradientTransform="matrix(0,-1.000001,1.142856,0,-89.10259,-31.49999)"
       cx="7"
       cy="39.464806"
       fx="7"
       fy="39.464806"
       r="3.5" />
    <linearGradient
       xlink:href="#linearGradient22140"
       id="linearGradient3161"
       gradientUnits="userSpaceOnUse"
       x1="18.142136"
       y1="35"
       x2="18.142136"
       y2="42.040661" />
    <linearGradient
       xlink:href="#linearGradient3412"
       id="linearGradient3163"
       gradientUnits="userSpaceOnUse"
       gradientTransform="matrix(0,2.7038931,-2.6535314,0,169.84848,922.24617)"
       x1="30.739399"
       y1="35.285313"
       x2="45.902721"
       y2="50.73642" />
    <linearGradient
       xlink:href="#linearGradient6240"
       id="linearGradient3165"
       gradientUnits="userSpaceOnUse"
       gradientTransform="matrix(-1,0,0,1,133.21779,919.36222)"
       x1="75.779678"
       y1="86"
       x2="75.779678"
       y2="127.03607" />
  </defs>
  <metadata
     id="metadata4022">
    <rdf:RDF>
      <cc:Work
         rdf:about="">
        <dc:format>image/svg+xml</dc:format>
        <dc:type
           rdf:resource="http://purl.org/dc/dcmitype/StillImage" />
        <dc:title />
      </cc:Work>
    </rdf:RDF>
  </metadata>
  <path
     inkscape:connector-curvature="0"
     d="m 8.4999609,0.49996 c 10.7701071,0 47.0000371,0.004 47.0000371,0.004 l 5.6e-5,58.99606 c 0,0 -31.333395,0 -47.0000931,0 0,-19.6667 0,-39.3332 0,-58.99981 z"
     id="path4160-6"
     style="display:inline;fill:#fafafa;fill-opacity:1;stroke:url(#linearGradient3098);stroke-width:0.99992186;stroke-linecap:butt;stroke-linejoin:round;stroke-miterlimit:4;stroke-dasharray:none;stroke-dashoffset:0;stroke-opacity:1" />
  <path
     inkscape:connector-curvature="0"
     d="m 15,59.50002 c -3.613947,-0.07 -6.2230518,0.142 -6.3745132,0 -0.1514614,-0.142 -0.1769312,-1.2347 -0.1769312,-3.1871 0,-18.5095 0,-37.0187 0,-55.52823 L 8.5661018,0.56692 8.6520358,0.446 l 0,0.054 c 1.8259352,0 4.4504652,0 6.2763922,0"
     id="path4530"
     style="color:#000000;display:inline;overflow:visible;visibility:visible;fill:url(#radialGradient3087);fill-opacity:1;fill-rule:nonzero;stroke:url(#linearGradient3089);stroke-width:1;stroke-linecap:butt;stroke-linejoin:round;stroke-miterlimit:4;stroke-dasharray:none;stroke-dashoffset:0;stroke-opacity:1;marker:none;enable-background:accumulate" />
  <g
     id="g3027"
     transform="matrix(0.79452662,0,0,1,9.0495748,-988.3622)">
    <path
       inkscape:connector-curvature="0"
       style="fill:none;stroke:url(#linearGradient3030);stroke-width:1.12187839px;stroke-linecap:butt;stroke-linejoin:miter;stroke-opacity:1"
       id="path3475-4"
       d="m 13.625,997.86239 3.43907,0 z m 3.943467,0 3.209799,0 z m 3.714196,0 2.842964,0 z m 3.301507,0 1.238066,0 z m 1.742462,0 2.751256,0 z m 3.301507,0 7.244975,0 z m 7.703518,0 5.548367,0 z m 6.006909,0 1.696609,0 z m -29.713566,2 5.364949,0 z m 5.961054,0 2.56784,0 z m 3.026382,0 1.283919,0 z m 1.788316,0 2.338569,0 z m 2.842966,0 2.384421,0 z m 2.842964,0 3.805905,0 z m 4.310302,0 4.952261,0 z m 5.410803,0 3.301507,0 z m 3.760051,0 0.825377,0 z m -29.942838,1.98431 4.539572,0 z m 4.998115,0 7.428391,0 z m 7.886934,0 3.622487,0 z m 4.08103,0 3.393216,0 z m 3.851759,0 2.888819,0 z m 3.347362,0 4.539572,0.031 z m 4.952261,0.031 7.382538,0 z m -29.117461,1.9845 6.282034,0 z m 6.786431,0 6.786432,0 z m 7.244975,0 2.705402,0 z m 3.163945,0 6.373743,0 z m 6.786431,0 4.356156,0 z m 4.860553,0 1.742462,0 z m 2.201005,0 0.962939,0 z m 1.467336,0 2.705403,0 z m -32.510676,2 2.338567,0 z m 3.072236,0 8.666456,0 z m -3.072236,3.9844 4.539572,0 z m 4.998115,0 7.428391,0 z m 7.886934,0 3.622487,0 z m 4.08103,0 3.393216,0 z m 3.851759,0 2.888819,0 z m 3.347362,0 4.539572,0.031 z m 4.952261,0.031 7.382538,0 z m -29.117461,1.9846 3.43907,0 z m 3.943467,0 3.163945,0 z m 3.714196,0 2.842964,0 z m 3.301507,0 1.238066,0 z m 1.742462,0 2.751256,0 z m 3.301507,0 7.199121,0 z m 7.703518,0 5.502512,0 z m 5.961055,0 1.742463,0 z m 2.201005,0 4.126885,0 z m -31.868717,2 5.777637,0 z m 6.23618,0 6.190326,0 z m 6.648869,0 2.384423,0 z m 2.842965,0 5.823492,0 z m 6.282035,0 7.336683,0 z m 7.84108,0 2.705402,0 z m -29.851129,2 6.282034,0 z m 6.786431,0 6.786432,0 z m 7.244975,0 2.705402,0 z m 3.163945,0 6.373743,0 z m 6.786431,0 4.356156,0 z m 4.860553,0 1.742462,0 z m 2.201005,0 0.962939,0 z m 1.467336,0 2.705403,0 z m -32.510676,2 5.364949,0 z m 5.961054,0 2.56784,0 z m 3.026382,0 1.283919,0 z m 1.788316,0 2.338569,0 z m 2.842966,0 2.384421,0 z m 2.842964,0 3.805905,0 z m 4.310302,0 4.952261,0 z m 5.410803,0 3.301507,0 z m 3.760051,0 0.825377,0 z m -29.942838,3.9844 4.539572,0 z m 4.998115,0 7.428391,0 z m 7.886934,0 3.622487,0 z m 4.08103,0 3.393216,0 z m 3.851759,0 2.888819,0 z m 3.347362,0 4.539572,0.031 z m 4.952261,0.031 7.382538,0 z m -29.117461,1.9846 5.364949,0 z m 5.961054,0 2.56784,0 z m 3.026382,0 1.283919,0 z m 1.788316,0 2.338569,0 z m 2.842966,0 2.384421,0 z m 2.842964,0 3.805905,0 z m 4.310302,0 4.952261,0 z m 5.410803,0 3.301507,0 z m 3.760051,0 0.825377,0 z m -29.942838,2 5.685928,0 z m 6.190325,0 1.788317,0 z m 2.24686,0 4.08103,0 z m 4.539573,0 6.006909,0 z m 6.511306,0 4.08103,0 z m 4.493718,0 0.871232,0 z m 1.329775,0 5.181531,0 z m 5.731783,0 2.705402,0 z m -31.04334,2 5.685928,0 z m 6.190325,0 2.567839,0 z m 3.026382,0 4.035176,0 z m 4.493719,0 4.356156,0 z m 4.860553,0 1.742462,0 z m 2.201005,0 0.96294,0 z m 1.467336,0 2.705402,0 z" />
    <path
       inkscape:connector-curvature="0"
       style="fill:none;stroke:url(#linearGradient3052);stroke-width:1.12187839px;stroke-linecap:butt;stroke-linejoin:miter;stroke-opacity:1"
       id="path3475-2-1"
       d="m 13.625,1031.8624 3.43907,0 z m 3.943467,0 3.209799,0 z m 3.714196,0 2.842964,0 z m 3.301507,0 1.238066,0 z m 1.742462,0 2.751256,0 z m 3.301507,0 7.244975,0 z m 7.703518,0 5.548367,0 z m 6.006909,0 1.696609,0 z m -29.713566,1.9843 4.539572,0 z m 4.998115,0 7.428391,0 z m 7.886934,0 3.622487,0 z m 4.08103,0 3.393216,0 z m 3.851759,0 2.888819,0 z m 3.347362,0 4.539572,0.031 z m 4.952261,0.031 7.382538,0 z m -29.117461,1.9845 6.282034,0 z m 6.786431,0 6.786432,0 z m 7.244975,0 2.705402,0 z m 3.163945,0 6.373743,0 z m 6.786431,0 4.356156,0 z m 4.860553,0 1.742462,0 z m 2.201005,0 0.962939,0 z m 1.467336,0 2.705403,0 z m -32.510676,2 2.338567,0 z m 3.072236,0 8.666456,0 z m -3.072236,0 5.777637,0 z m 6.23618,0 6.190326,0 z m 6.648869,0 2.384423,0 z m 2.842965,0 5.823492,0 z m 6.282035,0 7.336683,0 z m 7.84108,0 2.705402,0 z" />
  </g>
  <path
     inkscape:connector-curvature="0"
     d="m 55.502104,19.5 -39.999997,40 39.999997,0 z m -8,18.6666 0,13.3334 -13.499999,0 z"
     id="path2993"
     style="display:inline;overflow:visible;visibility:visible;opacity:0.8;fill:#e9e9e9;fill-opacity:1;fill-rule:evenodd;stroke:#83899a;stroke-width:1px;stroke-linecap:butt;stroke-linejoin:miter;stroke-miterlimit:4;stroke-dasharray:none;stroke-dashoffset:0;stroke-opacity:1;marker:none;enable-background:accumulate" />
</svg>
