<?xml version="1.0" encoding="UTF-8" standalone="no"?>
<svg
   xmlns:dc="http://purl.org/dc/elements/1.1/"
   xmlns:cc="http://creativecommons.org/ns#"
   xmlns:rdf="http://www.w3.org/1999/02/22-rdf-syntax-ns#"
   xmlns:svg="http://www.w3.org/2000/svg"
   xmlns="http://www.w3.org/2000/svg"
   xmlns:xlink="http://www.w3.org/1999/xlink"
   xmlns:sodipodi="http://sodipodi.sourceforge.net/DTD/sodipodi-0.dtd"
   xmlns:inkscape="http://www.inkscape.org/namespaces/inkscape"
   width="16"
   viewBox="0 0 16 16.99999"
   version="1.0"
   style="display:inline;enable-background:new"
   id="svg11300"
   height="16.99999"
   inkscape:version="0.91 r13725"
   sodipodi:docname="application-x-bittorrent.svg">
  <sodipodi:namedview
     pagecolor="#ffffff"
     bordercolor="#666666"
     borderopacity="1"
     objecttolerance="10"
     gridtolerance="10"
     guidetolerance="10"
     inkscape:pageopacity="0"
     inkscape:pageshadow="2"
     inkscape:window-width="1920"
     inkscape:window-height="1026"
     id="namedview27"
     showgrid="false"
     inkscape:zoom="13.882361"
     inkscape:cx="8.1440677"
     inkscape:cy="8.4999952"
     inkscape:window-x="0"
     inkscape:window-y="0"
     inkscape:window-maximized="1"
     inkscape:current-layer="svg11300" />
  <metadata
     id="metadata155">
    <rdf:RDF>
      <cc:Work
         rdf:about="">
        <dc:format>image/svg+xml</dc:format>
        <dc:type
           rdf:resource="http://purl.org/dc/dcmitype/StillImage" />
        <dc:title>elementary Icon Template</dc:title>
      </cc:Work>
    </rdf:RDF>
  </metadata>
  <title
     id="title4162">elementary Icon Template</title>
  <defs
     id="defs3">
    <linearGradient
       y2="41.076912"
       y1="6.9230647"
       x2="23.99999"
       x1="23.99999"
       id="linearGradient3988"
       xlink:href="#linearGradient3977"
       gradientUnits="userSpaceOnUse"
       gradientTransform="matrix(0.24324324,0,0,0.35135133,2.162164,-0.43244)" />
    <linearGradient
       id="linearGradient3977">
      <stop
         style="stop-color:#ffffff;stop-opacity:1"
         offset="0"
         id="stop3979" />
      <stop
         style="stop-color:#ffffff;stop-opacity:0.23529412"
         offset="0"
         id="stop3981" />
      <stop
         style="stop-color:#ffffff;stop-opacity:0.15686275"
         offset="1"
         id="stop3983" />
      <stop
         style="stop-color:#ffffff;stop-opacity:0.39215687"
         offset="1"
         id="stop3985" />
    </linearGradient>
    <linearGradient
       id="linearGradient3600">
      <stop
         style="stop-color:#f4f4f4;stop-opacity:1"
         offset="0"
         id="stop3602" />
      <stop
         style="stop-color:#dbdbdb;stop-opacity:1"
         offset="1"
         id="stop3604" />
    </linearGradient>
    <linearGradient
       y2="47.013336"
       y1="0.98520643"
       x2="25.132275"
       x1="25.132275"
       id="linearGradient3806"
       xlink:href="#linearGradient3600"
       gradientUnits="userSpaceOnUse"
       gradientTransform="matrix(0.28571361,0,0,0.30419701,1.1428727,0.23259)" />
    <linearGradient
       id="linearGradient3104-9">
      <stop
         style="stop-color:#000000;stop-opacity:0.33950618"
         offset="0"
         id="stop3106-5" />
      <stop
         style="stop-color:#000000;stop-opacity:0.24691358"
         offset="1"
         id="stop3108-5" />
    </linearGradient>
    <linearGradient
       y2="2.9062471"
       y1="50.786446"
       x2="-51.786404"
       x1="-51.786404"
       id="linearGradient3019"
       xlink:href="#linearGradient3104-9"
       gradientUnits="userSpaceOnUse"
       gradientTransform="matrix(0.25378586,0,0,0.30501865,19.128979,-0.68549)" />
  </defs>
  <path
     inkscape:connector-curvature="0"
     d="m 3,0.99999 c 2.291507,0 9.999988,8.9e-4 9.999988,8.9e-4 L 13,14.99999 l -10,0 z"
     id="path4160"
     style="display:inline;fill:#fafafa;fill-opacity:1;stroke:none" />
  <path
     inkscape:connector-curvature="0"
     d="m 2.499962,0.49996 c 2.520676,0 11.000063,9.6e-4 11.000063,9.6e-4 l 1.3e-5,14.9991 -11.000076,0 z"
     id="path4160-8"
     style="display:inline;fill:none;stroke:url(#linearGradient3019);stroke-width:0.99992192;stroke-linecap:butt;stroke-linejoin:round;stroke-miterlimit:4;stroke-dasharray:none;stroke-dashoffset:0;stroke-opacity:1" />
  <path
     inkscape:connector-curvature="0"
     d="m 4,8.99999 4,5 4,-5.00043 -2,4.3e-4 0,-1.50043 c 0,0.5 -0.704505,0.50043 -0.704505,0.50043 0,0 -0.720971,0 -0.720971,-0.5 0,-0.5 -0.588388,-0.5 -0.588388,-0.5 0,0 -0.588389,0 -0.588389,0.5 0,0.5 -0.588388,0.5 -0.588388,0.5 0,0 -0.809359,0 -0.809359,-0.50043 l 0,1.50043 z"
     id="path26667-3"
     style="color:#bebebe;display:inline;overflow:visible;visibility:visible;fill:#3689e6;fill-opacity:1;fill-rule:nonzero;stroke:none;stroke-width:1;marker:none;enable-background:accumulate" />
  <path
     inkscape:connector-curvature="0"
     d="m 7.986136,1.99999 c 0,0 -0.588389,0 -0.588389,0.5 0,0.5 -0.588388,0.5 -0.588388,0.5 0,0 -0.809359,4.2e-4 -0.809359,-0.5 l 0,7 4,-4.3e-4 0,-7 c 0,0.5 -0.704505,0.50043 -0.704505,0.50043 0,0 -0.720971,0 -0.720971,-0.5 0,-0.5 -0.588388,-0.5 -0.588388,-0.5 z"
     id="path10362-6"
     style="color:#bebebe;display:inline;overflow:visible;visibility:visible;opacity:0.2;fill:#3689e6;fill-opacity:1;fill-rule:nonzero;stroke:none;stroke-width:1;marker:none;enable-background:accumulate" />
  <path
     inkscape:connector-curvature="0"
     d="m 6.809359,4.99999 c 0,0 -0.809359,-4.3e-4 -0.809359,0.5 l 0,3 4,-4.3e-4 0,-3 c 0,-0.5 -0.704505,-0.49957 -0.704505,-0.49957 0,0 -0.720971,0 -0.720971,0.5 0,0.5 -0.588388,0.5 -0.588388,0.5 0,0 -0.588389,0 -0.588389,-0.5 0,-0.5 -0.588388,-0.5 -0.588388,-0.5 z"
     id="path10323-1"
     style="color:#bebebe;display:inline;overflow:visible;visibility:visible;opacity:0.5;fill:#3689e6;fill-opacity:1;fill-rule:nonzero;stroke:none;stroke-width:1;marker:none;enable-background:accumulate" />
</svg>
