<?xml version="1.0" encoding="UTF-8" standalone="no"?>
<svg
   xmlns:dc="http://purl.org/dc/elements/1.1/"
   xmlns:cc="http://creativecommons.org/ns#"
   xmlns:rdf="http://www.w3.org/1999/02/22-rdf-syntax-ns#"
   xmlns:svg="http://www.w3.org/2000/svg"
   xmlns="http://www.w3.org/2000/svg"
   xmlns:xlink="http://www.w3.org/1999/xlink"
   xmlns:sodipodi="http://sodipodi.sourceforge.net/DTD/sodipodi-0.dtd"
   xmlns:inkscape="http://www.inkscape.org/namespaces/inkscape"
   version="1.1"
   width="48"
   height="48"
   id="svg3901"
   inkscape:version="0.91 r13725"
   sodipodi:docname="text-x-tex.svg">
  <sodipodi:namedview
     pagecolor="#ffffff"
     bordercolor="#666666"
     borderopacity="1"
     objecttolerance="10"
     gridtolerance="10"
     guidetolerance="10"
     inkscape:pageopacity="0"
     inkscape:pageshadow="2"
     inkscape:window-width="1920"
     inkscape:window-height="1026"
     id="namedview40"
     showgrid="false"
     inkscape:zoom="9.8333331"
     inkscape:cx="2.53716"
     inkscape:cy="35.155743"
     inkscape:window-x="0"
     inkscape:window-y="0"
     inkscape:window-maximized="1"
     inkscape:current-layer="svg3901">
    <inkscape:grid
       type="xygrid"
       id="grid4202" />
  </sodipodi:namedview>
  <defs
     id="defs3903">
    <linearGradient
       id="linearGradient3403">
      <stop
         offset="0"
         style="stop-color:#ffffff;stop-opacity:1"
         id="stop3405" />
      <stop
         offset="0"
         style="stop-color:#ffffff;stop-opacity:0.23529412"
         id="stop3407" />
      <stop
         offset="1"
         style="stop-color:#ffffff;stop-opacity:0.15686275"
         id="stop3409" />
      <stop
         offset="1"
         style="stop-color:#ffffff;stop-opacity:0.39215687"
         id="stop3411" />
    </linearGradient>
    <linearGradient
       id="linearGradient3600">
      <stop
         id="stop3602"
         style="stop-color:#f4f4f4;stop-opacity:1"
         offset="0" />
      <stop
         id="stop3604"
         style="stop-color:#dbdbdb;stop-opacity:1"
         offset="1" />
    </linearGradient>
    <linearGradient
       id="linearGradient5060">
      <stop
         id="stop5062"
         style="stop-color:#000000;stop-opacity:1"
         offset="0" />
      <stop
         id="stop5064"
         style="stop-color:#000000;stop-opacity:0"
         offset="1" />
    </linearGradient>
    <linearGradient
       id="linearGradient5048">
      <stop
         id="stop5050"
         style="stop-color:#000000;stop-opacity:0"
         offset="0" />
      <stop
         id="stop5056"
         style="stop-color:#000000;stop-opacity:1"
         offset="0.5" />
      <stop
         id="stop5052"
         style="stop-color:#000000;stop-opacity:0"
         offset="1" />
    </linearGradient>
    <linearGradient
       id="linearGradient3104-6">
      <stop
         offset="0"
         style="stop-color:#000000;stop-opacity:0.31782946"
         id="stop3106-3" />
      <stop
         offset="1"
         style="stop-color:#000000;stop-opacity:0.24031007"
         id="stop3108-9" />
    </linearGradient>
    <linearGradient
       xlink:href="#linearGradient3403"
       id="linearGradient3106"
       gradientUnits="userSpaceOnUse"
       gradientTransform="matrix(0.89189189,0,0,1.1351351,2.5945999,-4.7432314)"
       x1="23.99999"
       y1="5.9404659"
       x2="23.99999"
       y2="42.110645" />
    <linearGradient
       xlink:href="#linearGradient3600"
       id="linearGradient3109"
       gradientUnits="userSpaceOnUse"
       gradientTransform="matrix(0.97142632,0,0,0.93431938,0.68576678,-1.3569996)"
       x1="25.132275"
       y1="0.98520643"
       x2="25.132275"
       y2="47.013336" />
    <radialGradient
       xlink:href="#linearGradient5060"
       id="radialGradient3112"
       gradientUnits="userSpaceOnUse"
       gradientTransform="matrix(0.02303995,0,0,0.01470022,26.360882,37.040176)"
       cx="605.71429"
       cy="486.64789"
       fx="605.71429"
       fy="486.64789"
       r="117.14286" />
    <radialGradient
       xlink:href="#linearGradient5060"
       id="radialGradient3115"
       gradientUnits="userSpaceOnUse"
       gradientTransform="matrix(-0.02303994,0,0,0.01470022,21.62311,37.040176)"
       cx="605.71429"
       cy="486.64789"
       fx="605.71429"
       fy="486.64789"
       r="117.14286" />
    <linearGradient
       xlink:href="#linearGradient5048"
       id="linearGradient3118"
       gradientUnits="userSpaceOnUse"
       gradientTransform="matrix(0.06732488,0,0,0.01470022,-0.3411391,37.040146)"
       x1="302.85715"
       y1="366.64789"
       x2="302.85715"
       y2="609.50507" />
    <linearGradient
       xlink:href="#linearGradient3104-6"
       id="linearGradient3170"
       gradientUnits="userSpaceOnUse"
       gradientTransform="matrix(0.80749686,0,0,0.89471714,59.410232,-2.9773433)"
       x1="-51.786404"
       y1="50.786446"
       x2="-51.786404"
       y2="2.9062471" />
    <linearGradient
       x1="22.004084"
       y1="47.813133"
       x2="22.004084"
       y2="3.3638515"
       id="linearGradient3052"
       xlink:href="#linearGradient3104-5"
       gradientUnits="userSpaceOnUse"
       gradientTransform="translate(-1.982096,-3.047074)" />
    <linearGradient
       id="linearGradient3104-5">
      <stop
         id="stop3106-2"
         style="stop-color:#aaaaaa;stop-opacity:1"
         offset="0" />
      <stop
         id="stop3108-5"
         style="stop-color:#c8c8c8;stop-opacity:1"
         offset="1" />
    </linearGradient>
  </defs>
  <metadata
     id="metadata3906">
    <rdf:RDF>
      <cc:Work
         rdf:about="">
        <dc:format>image/svg+xml</dc:format>
        <dc:type
           rdf:resource="http://purl.org/dc/dcmitype/StillImage" />
        <dc:title />
      </cc:Work>
    </rdf:RDF>
  </metadata>
  <path
     style="fill:#fafafa;fill-opacity:1;stroke:none;display:inline"
     id="path4160"
     d="m 7,1.0000001 c 7.791126,0 33.999959,0.00274 33.999959,0.00274 L 41,44 C 41,44 18.333334,44 7,44 7,29.666666 7,15.333333 7,1 z" />
  <path
     style="fill:none;stroke:url(#linearGradient3106);stroke-width:1;stroke-linecap:round;stroke-linejoin:miter;stroke-miterlimit:4;stroke-opacity:1;stroke-dasharray:none;stroke-dashoffset:0"
     id="rect6741-1"
     d="m 40.5,43.5 -33,0 0,-41.9999998 33,0 z" />
  <path
     style="fill:none;stroke:url(#linearGradient3170);stroke-width:0.99992192;stroke-linecap:butt;stroke-linejoin:round;stroke-miterlimit:4;stroke-opacity:1;stroke-dasharray:none;stroke-dashoffset:0;display:inline"
     id="path4160-6-1"
     d="m 6.4999605,0.4999623 c 8.0202885,0 35.0000415,0.00298 35.0000415,0.00298 l 3.7e-5,43.9970957 c 0,0 -23.333385,0 -35.0000785,0 0,-14.666738 0,-29.333326 0,-43.9998923 z" />
  <path
     inkscape:connector-curvature="0"
     style="font-style:normal;font-variant:normal;font-weight:normal;font-stretch:normal;font-size:15.12844849px;line-height:125%;font-family:'Latin Modern Roman';-inkscape-font-specification:'Latin Modern Roman';text-align:start;letter-spacing:0px;word-spacing:0px;writing-mode:lr-tb;text-anchor:start;opacity:1;fill:#1a1a1a;fill-opacity:1;stroke:none"
     d="m 27.62963,15.5 0,0.555555 0.37037,0 c 0.986149,0 1.325997,0.127591 1.666667,0.62963 l 3.296296,5 L 30,26.018518 c -0.25102,0.358601 -0.781663,1.185185 -2.592593,1.185185 l 0,0.555557 2,-0.07407 c 0.66341,0 1.650816,0.02028 2.296296,0.07407 l 0,-0.555557 c -0.824779,-0.01793 -1.148148,-0.529111 -1.148148,-0.851851 0,-0.16137 0.05969,-0.210177 0.185185,-0.407407 l 2.555557,-3.777778 2.814813,4.296296 c 0.03586,0.07171 0.111112,0.131395 0.111112,0.185185 0,0.21516 -0.414194,0.537625 -1.185185,0.555555 l 0,0.555557 c 0.627551,-0.05379 1.948289,-0.07407 2.62963,-0.07407 L 40,27.75926 l 0,-0.555557 -0.333333,0 c -0.932361,0 -1.327175,-0.110838 -1.703704,-0.666666 L 34.185185,20.833333 36.62963,17.24074 c 0.394461,-0.57376 1.03386,-1.167254 2.62963,-1.185185 l 0,-0.555555 -2,0.07407 c -0.717201,0 -1.579097,-0.02028 -2.296297,-0.07407 l 0,0.555555 c 0.7172,0.01793 1.111112,0.402426 1.111112,0.814815 0,0.179299 -0.02264,0.247215 -0.14815,0.444445 l -2.074073,3 -2.296297,-3.444445 c -0.03586,-0.05379 -0.11111,-0.18754 -0.11111,-0.25926 0,-0.21516 0.377157,-0.537624 1.148148,-0.555555 l 0,-0.555555 c -0.62755,0.05379 -1.948291,0.07407 -2.62963,0.07407 L 27.62963,15.5 Z M 8.333333,15.61111 8,19.648148 l 0.4444447,0 c 0.2510198,-2.886729 0.5147916,-3.481481 3.2222223,-3.481481 0.32274,0 0.783664,0.0012 0.962963,0.03703 0.376529,0.07171 0.407407,0.254278 0.407407,0.666667 l 0,9.444445 c 0,0.609619 -0.0063,0.888888 -1.888889,0.888888 l -0.740741,0 0,0.555557 c 0.735131,-0.05379 2.582628,-0.07407 3.407408,-0.07407 0.82478,0 2.672278,0.02028 3.407407,0.07407 l 0,-0.555557 -0.74074,0 c -1.882649,0 -1.851852,-0.279269 -1.851852,-0.888888 l 0,-9.444445 c 0,-0.358599 -0.02644,-0.594946 0.296295,-0.666667 0.197231,-0.03586 0.696368,-0.03703 1.037038,-0.03703 2.707428,0 2.971202,0.594752 3.222222,3.481481 l 0.444445,0 -0.333333,-4.037038 -10.962964,0 z m 9.703704,4.703705 0,0.555555 0.444445,0 c 1.380609,0 1.407408,0.169336 1.407408,0.814815 l 0,9.407408 c 0,0.645478 -0.02679,0.851852 -1.407408,0.851852 l -0.444445,0 0,0.555555 10.333333,0 0.777778,-4.62963 -0.481481,0 c -0.44825,2.761219 -0.841967,4.074075 -3.925927,4.074075 l -2.37037,0 c -0.842709,0 -0.888888,-0.149052 -0.888888,-0.740742 l 0,-4.777778 1.592593,0 c 1.739208,0 1.962962,0.587063 1.962962,2.111112 l 0.444445,0 0,-4.777777 -0.444445,0 c 0,1.541978 -0.223754,2.11111 -1.962962,2.11111 l -1.592593,0 0,-4.296295 c 0,-0.59169 0.04619,-0.703705 0.888888,-0.703705 l 2.296297,0 c 2.743288,0 3.231638,0.952175 3.518518,3.444445 l 0.444445,0 -0.51852,-4 -10.074073,0 z"
     id="path4447" />
  <text
     y="-182.86414"
     xml:space="preserve"
     x="-775.49316"
     style="font-style:normal;font-variant:normal;font-weight:normal;font-stretch:normal;font-size:18px;font-family:'DejaVu Sans';-inkscape-font-specification:'DejaVu Sans';display:none;fill:#000000;fill-opacity:1;stroke:none;enable-background:new"
     id="context"><tspan
       style="font-style:normal;font-variant:normal;font-weight:normal;font-stretch:normal;font-family:'DejaVu Sans';-inkscape-font-specification:'DejaVu Sans'"
       y="-182.86414"
       x="-775.49316"
       id="tspan3933">apps</tspan></text>
  <text
     y="-182.86414"
     xml:space="preserve"
     x="-668.01172"
     style="font-style:normal;font-variant:normal;font-weight:bold;font-stretch:normal;font-size:18px;line-height:125%;font-family:'DejaVu Sans';-inkscape-font-specification:'DejaVu Sans Bold';text-align:start;writing-mode:lr-tb;text-anchor:start;display:none;fill:#000000;fill-opacity:1;stroke:none;enable-background:new"
     id="icon-name"
     sodipodi:linespacing="125%"><tspan
       style="font-style:normal;font-variant:normal;font-weight:bold;font-stretch:normal;font-size:18px;font-family:'DejaVu Sans';-inkscape-font-specification:'DejaVu Sans Bold'"
       y="-182.86414"
       x="-668.01172"
       id="tspan3937">texstudio</tspan></text>
  <rect
     style="display:none;overflow:visible;visibility:visible;fill:#eeeeec;fill-opacity:1;fill-rule:nonzero;stroke:none;stroke-width:2;marker:none;enable-background:accumulate"
     id="rect16x16"
     width="16"
     height="16"
     x="-374.5"
     y="-62.609249" />
  <rect
     style="display:none;overflow:visible;visibility:visible;fill:#d4d4d4;fill-opacity:1;fill-rule:nonzero;stroke:none;stroke-width:2;marker:none;enable-background:accumulate"
     id="rect24x24"
     width="24"
     height="24"
     x="-374.5"
     y="-102.60925" />
  <rect
     style="display:none;overflow:visible;visibility:visible;fill:#eeeeec;fill-opacity:1;fill-rule:nonzero;stroke:none;stroke-width:2;marker:none;enable-background:accumulate"
     id="rect32x32"
     width="32"
     height="32"
     x="-374.5"
     y="-150.60925" />
  <rect
     y="-101.60925"
     x="-373.5"
     height="22"
     width="22"
     id="rect22x22"
     style="display:none;overflow:visible;visibility:visible;fill:#eeeeec;fill-opacity:1;fill-rule:nonzero;stroke:none;stroke-width:2;marker:none;enable-background:accumulate" />
  <rect
     y="17.390751"
     x="-502.5"
     height="48"
     width="48"
     id="rect48x48"
     style="display:none;overflow:visible;visibility:visible;fill:#eeeeec;fill-opacity:1;fill-rule:nonzero;stroke:none;stroke-width:2;marker:none;enable-background:accumulate" />
  <rect
     style="display:none;overflow:visible;visibility:visible;fill:#eeeeec;fill-opacity:1;fill-rule:nonzero;stroke:none;stroke-width:2;marker:none;enable-background:accumulate"
     id="rect256x256"
     width="256"
     height="256"
     x="-774.5"
     y="-174.60925" />
  <rect
     style="display:none;overflow:visible;visibility:visible;fill:#eeeeec;fill-opacity:1;fill-rule:nonzero;stroke:none;stroke-width:2;marker:none;enable-background:accumulate"
     id="rect64x64"
     width="64"
     height="64"
     x="-502.5"
     y="-62.609249" />
  <rect
     style="display:none;overflow:visible;visibility:visible;fill:#eeeeec;fill-opacity:1;fill-rule:nonzero;stroke:none;stroke-width:2;marker:none;enable-background:accumulate"
     id="rect96x96"
     width="96"
     height="96"
     x="-502.5"
     y="-174.60925" />
</svg>
