<?xml version="1.0" encoding="UTF-8" standalone="no"?>
<svg
   xmlns:dc="http://purl.org/dc/elements/1.1/"
   xmlns:cc="http://creativecommons.org/ns#"
   xmlns:rdf="http://www.w3.org/1999/02/22-rdf-syntax-ns#"
   xmlns:svg="http://www.w3.org/2000/svg"
   xmlns="http://www.w3.org/2000/svg"
   xmlns:xlink="http://www.w3.org/1999/xlink"
   xmlns:sodipodi="http://sodipodi.sourceforge.net/DTD/sodipodi-0.dtd"
   xmlns:inkscape="http://www.inkscape.org/namespaces/inkscape"
   width="24"
   viewBox="0 0 24 24.000027"
   version="1.0"
   style="display:inline;enable-background:new"
   id="svg11300"
   height="24.000027"
   inkscape:version="0.91 r13725"
   sodipodi:docname="application-x-bittorrent.svg">
  <sodipodi:namedview
     pagecolor="#ffffff"
     bordercolor="#666666"
     borderopacity="1"
     objecttolerance="10"
     gridtolerance="10"
     guidetolerance="10"
     inkscape:pageopacity="0"
     inkscape:pageshadow="2"
     inkscape:window-width="1920"
     inkscape:window-height="1026"
     id="namedview36"
     showgrid="false"
     inkscape:zoom="9.8333224"
     inkscape:cx="-14.491555"
     inkscape:cy="12.000013"
     inkscape:window-x="0"
     inkscape:window-y="0"
     inkscape:window-maximized="1"
     inkscape:current-layer="svg11300" />
  <metadata
     id="metadata155">
    <rdf:RDF>
      <cc:Work
         rdf:about="">
        <dc:format>image/svg+xml</dc:format>
        <dc:type
           rdf:resource="http://purl.org/dc/dcmitype/StillImage" />
        <dc:title>elementary Icon Template</dc:title>
      </cc:Work>
    </rdf:RDF>
  </metadata>
  <title
     id="title4162">elementary Icon Template</title>
  <defs
     id="defs3">
    <linearGradient
       id="linearGradient10457">
      <stop
         style="stop-color:#000000;stop-opacity:1;"
         offset="0"
         id="stop10453" />
      <stop
         style="stop-color:#000000;stop-opacity:0;"
         offset="1"
         id="stop10455" />
    </linearGradient>
    <linearGradient
       id="linearGradient3977">
      <stop
         style="stop-color:#ffffff;stop-opacity:1"
         offset="0"
         id="stop3979" />
      <stop
         style="stop-color:#ffffff;stop-opacity:0.23529412"
         offset="0"
         id="stop3981" />
      <stop
         style="stop-color:#ffffff;stop-opacity:0.15686275"
         offset="1"
         id="stop3983" />
      <stop
         style="stop-color:#ffffff;stop-opacity:0.39215687"
         offset="1"
         id="stop3985" />
    </linearGradient>
    <linearGradient
       id="linearGradient3600">
      <stop
         style="stop-color:#f4f4f4;stop-opacity:1"
         offset="0"
         id="stop3602" />
      <stop
         style="stop-color:#dbdbdb;stop-opacity:1"
         offset="1"
         id="stop3604" />
    </linearGradient>
    <linearGradient
       id="linearGradient5048">
      <stop
         style="stop-color:#000000;stop-opacity:0"
         offset="0"
         id="stop5050" />
      <stop
         style="stop-color:#000000;stop-opacity:1"
         offset="0.5"
         id="stop5056" />
      <stop
         style="stop-color:#000000;stop-opacity:0"
         offset="1"
         id="stop5052" />
    </linearGradient>
    <linearGradient
       y2="41.526306"
       y1="6.4736748"
       x2="23.99999"
       x1="23.99999"
       id="linearGradient3013"
       xlink:href="#linearGradient3977"
       gradientUnits="userSpaceOnUse"
       gradientTransform="matrix(0.40540511,0,0,0.51351351,2.269687,-0.32432)" />
    <linearGradient
       y2="47.013336"
       y1="0.98520643"
       x2="25.132275"
       x1="25.132275"
       id="linearGradient3016"
       xlink:href="#linearGradient3600"
       gradientUnits="userSpaceOnUse"
       gradientTransform="matrix(0.45714178,0,0,0.43456667,1.028596,0.90372)" />
    <linearGradient
       y2="609.50507"
       y1="366.64789"
       x2="302.85715"
       x1="302.85715"
       id="linearGradient3027"
       xlink:href="#linearGradient5048"
       gradientUnits="userSpaceOnUse"
       gradientTransform="matrix(0.0352071,0,0,0.0082353,-0.724852,18.98055)" />
    <radialGradient
       r="117.14286"
       id="radialGradient7078"
       xlink:href="#linearGradient10457"
       gradientUnits="userSpaceOnUse"
       gradientTransform="matrix(-0.01253114,0,0,0.00823569,11.05202,18.98032)"
       fy="486.64789"
       fx="605.71429"
       cy="486.64789"
       cx="605.71429" />
    <radialGradient
       r="117.14286"
       id="radialGradient7082"
       xlink:href="#linearGradient10457"
       gradientUnits="userSpaceOnUse"
       gradientTransform="matrix(0.01253114,0,0,0.00823569,12.94798,18.98035)"
       fy="486.64789"
       fx="605.71429"
       cy="486.64789"
       cx="605.71429" />
  </defs>
  <path
     inkscape:connector-curvature="0"
     d="M 4,2 C 7.666412,2 19.99998,2.001 19.99998,2.001 L 20,22 4,22 4,2.00002 Z"
     id="path4160-3"
     style="display:inline;fill:#fafafa;fill-opacity:1;stroke:none" />
  <path
     inkscape:connector-curvature="0"
     d="m 3.49996,1.49996 c 3.895581,0 17.000059,0.001 17.000059,0.001 l 2.1e-5,20.99871 -17.00008,0 0,-21.00005 z"
     id="path4160-3-1"
     style="display:inline;opacity:0.3;fill:none;stroke:#000000;stroke-width:0.99992186;stroke-linecap:butt;stroke-linejoin:round;stroke-miterlimit:4;stroke-dasharray:none;stroke-dashoffset:0;stroke-opacity:1" />
  <path
     inkscape:connector-curvature="0"
     d="m 12,5.45556 c 0,0 -0.666655,0 -0.666655,0.63707 0,0.63703 -0.666685,0.63703 -0.666685,0.63703 0,0 -0.66666,4.5e-4 -0.66666,-0.63703 l 0,8.9186 4,0 0,-8.9186 c 0,0.63703 -0.666655,0.63703 -0.666655,0.63703 0,0 -0.66669,0 -0.66669,-0.63703 C 12.666655,5.45556 12,5.45556 12,5.45556 Z"
     id="path10832"
     style="color:#bebebe;display:inline;overflow:visible;visibility:visible;opacity:0.2;fill:#3689e6;fill-opacity:1;fill-rule:nonzero;stroke:none;stroke-width:1;marker:none;enable-background:accumulate" />
  <path
     inkscape:connector-curvature="0"
     d="m 10.666668,8.33707 c 0,0 -0.666666,-5.4e-4 -0.666666,0.63704 l 0,4.36296 3.999997,0 0,-4.36296 c 0,-0.63704 -0.666666,-0.63704 -0.666666,-0.63704 0,0 -0.666667,0 -0.666667,0.63704 C 12.666666,9.61116 12,9.61116 12,9.61116 c 0,0 -0.666666,0 -0.666666,-0.63705 0,-0.63704 -0.666666,-0.63704 -0.666666,-0.63704 z"
     id="path10846"
     style="color:#bebebe;display:inline;overflow:visible;visibility:visible;opacity:0.5;fill:#3689e6;fill-opacity:1;fill-rule:nonzero;stroke:none;stroke-width:1;marker:none;enable-background:accumulate" />
  <path
     inkscape:connector-curvature="0"
     d="m 12,10.95508 c 0,0 -0.66699,5e-4 -0.66699,0.63769 0,0.63704 -0.66602,0.63672 -0.66602,0.63672 0,0 -0.66699,10e-4 -0.66699,-0.63672 L 10,14 9.85742,14 7,14 12,20.45996 17,14 l -1.14258,0 -1.713865,10e-4 0,-10e-4 L 14,14 14,11.59278 c 0,0.63703 -0.66699,0.63671 -0.66699,0.63671 0,0 -0.66602,3.2e-4 -0.66602,-0.63671 C 12.66699,10.95571 12,10.95508 12,10.95508 Z"
     id="path10852"
     style="color:#bebebe;display:inline;overflow:visible;visibility:visible;fill:#3689e6;fill-opacity:1;fill-rule:nonzero;stroke:none;stroke-width:0.99999994;marker:none;enable-background:accumulate" />
</svg>
