<?xml version="1.0" encoding="UTF-8" standalone="no"?>
<svg
   xmlns:dc="http://purl.org/dc/elements/1.1/"
   xmlns:cc="http://creativecommons.org/ns#"
   xmlns:rdf="http://www.w3.org/1999/02/22-rdf-syntax-ns#"
   xmlns:svg="http://www.w3.org/2000/svg"
   xmlns="http://www.w3.org/2000/svg"
   xmlns:xlink="http://www.w3.org/1999/xlink"
   xmlns:sodipodi="http://sodipodi.sourceforge.net/DTD/sodipodi-0.dtd"
   xmlns:inkscape="http://www.inkscape.org/namespaces/inkscape"
   viewBox="0 0 24 24"
   id="svg3085"
   height="24"
   width="24"
   version="1.1"
   inkscape:version="0.91 r13725"
   sodipodi:docname="text-x-generic-template-rtl.svg">
  <sodipodi:namedview
     pagecolor="#ffffff"
     bordercolor="#666666"
     borderopacity="1"
     objecttolerance="10"
     gridtolerance="10"
     guidetolerance="10"
     inkscape:pageopacity="0"
     inkscape:pageshadow="2"
     inkscape:window-width="1920"
     inkscape:window-height="1026"
     id="namedview47"
     showgrid="false"
     inkscape:zoom="27.812867"
     inkscape:cx="15.156563"
     inkscape:cy="10.076264"
     inkscape:window-x="0"
     inkscape:window-y="0"
     inkscape:window-maximized="1"
     inkscape:current-layer="svg3085" />
  <defs
     id="defs3087">
    <linearGradient
       gradientTransform="matrix(-0.48571482,0,0,0.477213,24.387752,-0.326798)"
       gradientUnits="userSpaceOnUse"
       xlink:href="#linearGradient3104-5"
       id="linearGradient3031"
       y2="3.3638515"
       x2="22.004084"
       y1="47.813133"
       x1="22.004084" />
    <linearGradient
       id="linearGradient3104-5">
      <stop
         offset="0"
         style="stop-color:#aaaaaa;stop-opacity:1"
         id="stop3106-2" />
      <stop
         offset="1"
         style="stop-color:#c8c8c8;stop-opacity:1"
         id="stop3108-5" />
    </linearGradient>
    <linearGradient
       gradientTransform="matrix(0.40540511,0,0,0.51351351,2.2696871,-0.3243195)"
       gradientUnits="userSpaceOnUse"
       xlink:href="#linearGradient3977"
       id="linearGradient3013"
       y2="43"
       x2="23.99999"
       y1="5.5641499"
       x1="23.99999" />
    <linearGradient
       id="linearGradient3977">
      <stop
         offset="0"
         style="stop-color:#ffffff;stop-opacity:1"
         id="stop3979" />
      <stop
         offset="0.03626217"
         style="stop-color:#ffffff;stop-opacity:0.23529412"
         id="stop3981" />
      <stop
         offset="0.95056331"
         style="stop-color:#ffffff;stop-opacity:0.15686275"
         id="stop3983" />
      <stop
         offset="1"
         style="stop-color:#ffffff;stop-opacity:0.39215687"
         id="stop3985" />
    </linearGradient>
    <linearGradient
       gradientTransform="matrix(0.48571543,0,0,0.45629666,0.3428289,0.3488617)"
       gradientUnits="userSpaceOnUse"
       xlink:href="#linearGradient3600-4"
       id="linearGradient3016"
       y2="47.013336"
       x2="25.132275"
       y1="0.98520643"
       x1="25.132275" />
    <linearGradient
       id="linearGradient3600-4">
      <stop
         offset="0"
         style="stop-color:#f4f4f4;stop-opacity:1"
         id="stop3602-7" />
      <stop
         offset="1"
         style="stop-color:#dbdbdb;stop-opacity:1"
         id="stop3604-6" />
    </linearGradient>
    <radialGradient
       gradientTransform="matrix(0.01204859,0,0,0.0082353,13.238793,18.980564)"
       gradientUnits="userSpaceOnUse"
       xlink:href="#linearGradient5060"
       id="radialGradient3021"
       fy="486.64789"
       fx="605.71429"
       r="117.14286"
       cy="486.64789"
       cx="605.71429" />
    <linearGradient
       id="linearGradient5060">
      <stop
         offset="0"
         style="stop-color:#000000;stop-opacity:1"
         id="stop5062" />
      <stop
         offset="1"
         style="stop-color:#000000;stop-opacity:0"
         id="stop5064" />
    </linearGradient>
    <radialGradient
       gradientTransform="matrix(-0.01204859,0,0,0.0082353,10.761206,18.980564)"
       gradientUnits="userSpaceOnUse"
       xlink:href="#linearGradient5060"
       id="radialGradient3024"
       fy="486.64789"
       fx="605.71429"
       r="117.14286"
       cy="486.64789"
       cx="605.71429" />
    <linearGradient
       id="linearGradient5048">
      <stop
         offset="0"
         style="stop-color:#000000;stop-opacity:0"
         id="stop5050" />
      <stop
         offset="0.5"
         style="stop-color:#000000;stop-opacity:1"
         id="stop5056" />
      <stop
         offset="1"
         style="stop-color:#000000;stop-opacity:0"
         id="stop5052" />
    </linearGradient>
    <linearGradient
       gradientTransform="matrix(0.0352071,0,0,0.0082353,-0.724852,18.980547)"
       gradientUnits="userSpaceOnUse"
       xlink:href="#linearGradient5048"
       id="linearGradient3083"
       y2="609.50507"
       x2="302.85715"
       y1="366.64789"
       x1="302.85715" />
    <radialGradient
       gradientTransform="matrix(-0.01472605,0,0,0.0095356,21.208141,18.688026)"
       gradientUnits="userSpaceOnUse"
       xlink:href="#linearGradient5060-5"
       id="radialGradient3044"
       fy="486.64789"
       fx="605.71429"
       r="117.14286"
       cy="486.64789"
       cx="605.71429" />
    <linearGradient
       id="linearGradient5060-5">
      <stop
         offset="0"
         style="stop-color:#000000;stop-opacity:1"
         id="stop5062-8" />
      <stop
         offset="1"
         style="stop-color:#000000;stop-opacity:0"
         id="stop5064-2" />
    </linearGradient>
    <linearGradient
       id="linearGradient3412">
      <stop
         offset="0"
         style="stop-color:#fcfcfc;stop-opacity:1"
         id="stop3414" />
      <stop
         offset="1"
         style="stop-color:#cbcdd9;stop-opacity:1"
         id="stop3416" />
    </linearGradient>
    <linearGradient
       gradientTransform="matrix(0,0.61754391,-0.65185192,0,33.55926,-4.7561431)"
       gradientUnits="userSpaceOnUse"
       xlink:href="#linearGradient3412"
       id="linearGradient3094"
       y2="30.190546"
       x2="44.118835"
       y1="19.948324"
       x1="33.876614" />
  </defs>
  <metadata
     id="metadata3090">
    <rdf:RDF>
      <cc:Work
         rdf:about="">
        <dc:format>image/svg+xml</dc:format>
        <dc:type
           rdf:resource="http://purl.org/dc/dcmitype/StillImage" />
        <dc:title />
      </cc:Work>
    </rdf:RDF>
  </metadata>
  <path
     d="m 4.0000001,1.9999975 c 3.6664119,0 15.9999799,0.0013 15.9999799,0.0013 L 20,22.000002 c 0,0 -10.6666662,0 -16,0 C 4,15.333343 4,8.6666839 4,2.0000236 Z"
     id="path4160-3"
     style="display:inline;fill:#fafafa;fill-opacity:1;stroke:none"
     inkscape:connector-curvature="0" />
  <path
     d="m 3.4999601,1.4999569 c 3.8955809,0 17.0000589,0.00136 17.0000589,0.00136 l 2.1e-5,20.9987161 c 0,0 -11.3333862,0 -17.0000799,0 0,-7.000018 0,-14.000035 0,-21.0000538 z"
     id="path4160-3-1"
     style="display:inline;opacity:0.3;fill:none;stroke:#000000;stroke-width:0.99992186;stroke-linecap:butt;stroke-linejoin:round;stroke-miterlimit:4;stroke-dasharray:none;stroke-dashoffset:0;stroke-opacity:1" />
  <path
     d="m 18.082156,5.5 h -1.138394 z m -1.305359,0 h -1.062501 z m -1.229466,0 h -0.941072 z m -1.092858,0 h -0.409822 z m -0.576786,0 h -0.910715 z m -1.092859,0 h -2.398216 z m -2.550002,0 h -1.83661 z m -1.988395,0 H 7.684823 Z m 9.835725,1 h -1.775895 z m -1.973217,0 h -0.850001 z m -1.001787,0 h -0.425 z m -0.591965,0 h -0.774108 z m -0.941072,0 h -0.789287 z m -0.941072,0 H 11.37322 Z m -1.426788,0 H 9.566968 Z m -1.791073,0 H 8.322324 Z m -1.244644,0 H 7.897323 Z m 9.911618,0.9925436 h -1.502681 z m -1.654466,0 h -2.458932 z m -2.610718,0 h -1.199108 z m -1.350894,0 h -1.123215 z m -1.275001,0 h -0.956251 z m -1.108037,0 -1.50268,0.014913 z M 8.443752,7.5074566 H 6 Z M 18.082156,8.5 h -2.079467 z m -2.246431,0 h -2.246431 z m -2.398217,0 h -0.895537 z m -1.047323,0 h -2.109824 z m -2.246431,0 H 8.701788 Z m -1.60893,0 H 7.958037 Z m -0.728572,0 H 7.487501 Z m -0.485715,0 H 6.425 Z m 10.761619,1 h -0.774108 z m -1.016966,0 h -2.868753 z m 1.016966,1.992545 h -1.502681 z m -1.654466,0 h -2.458932 z m -2.610718,0 h -1.199108 z m -1.350894,0 h -1.123215 z m -1.275001,0 h -0.956251 z m -1.108037,0 -1.50268,0.01491 z m -1.639288,0.01491 H 6 Z M 18.082156,12.5 h -1.912502 z m -2.064288,0 h -2.04911 z m -2.200896,0 h -0.789286 z m -0.941072,0 h -1.927681 z m -2.079467,0 H 8.367859 Z m -2.595538,0 H 7.305358 Z m 9.881261,1 h -2.079467 z m -2.246431,0 h -2.246431 z m -2.398217,0 h -0.895537 z m -1.047323,0 h -2.109824 z m -2.246431,0 H 8.701788 Z m -1.60893,0 H 7.958037 Z m -0.728572,0 H 7.487501 Z m -0.485715,0 H 6.425 Z m 10.761619,1 h -1.775895 z m -1.973217,0 h -0.850001 z m -1.001787,0 h -0.425 z m -0.591965,0 h -0.774108 z m -0.941072,0 h -0.789287 z m -0.941072,0 H 11.37322 Z m -1.426788,0 H 9.566968 Z m -1.791073,0 H 8.322324 Z m -1.244644,0 H 7.897323 Z m 9.911618,1.992545 h -1.502681 z m -1.654466,0 h -2.458932 z m -2.610718,0 h -1.199108 z m -1.350894,0 h -1.123215 z m -1.275001,0 h -0.956251 z m -1.108037,0 -1.50268,0.01491 z m -1.639288,0.01491 H 6 Z M 18.082156,17.5 h -1.775895 z m -1.973217,0 h -0.850001 z m -1.001787,0 h -0.425 z m -0.591965,0 h -0.774108 z m -0.941072,0 h -0.789287 z m -0.941072,0 H 11.37322 Z m -1.426788,0 H 9.566968 Z m -1.791073,0 H 8.322324 Z m -1.244644,0 H 7.897323 Z m 9.911618,1 h -1.882145 z m -2.04911,0 h -0.591965 z m -0.743751,0 h -1.350894 z m -1.50268,0 H 11.79822 Z m -2.155359,0 h -1.350895 z m -1.487502,0 H 9.855361 Z m -0.440179,0 h -1.71518 z m -1.897323,0 H 6.910715 Z m 10.275904,1 h -1.882145 z m -2.04911,0 h -0.850001 z m -1.001787,0 h -1.335715 z m -1.487501,0 h -1.441966 z m -1.60893,0 h -0.576787 z m -0.728573,0 h -0.31875 z m -0.485715,0 H 9.825004 Z"
     id="path3475"
     style="fill:none;stroke:url(#linearGradient3031);stroke-width:1px;stroke-linecap:butt;stroke-linejoin:miter;stroke-opacity:1" />
  <path
     inkscape:connector-curvature="0"
     style="opacity:0.8;fill:#e9e9e9;fill-opacity:1;fill-rule:evenodd;stroke:#83899a;stroke-width:0.99999994px;stroke-linecap:butt;stroke-linejoin:miter;stroke-opacity:1"
     id="path3410"
     d="M 20.499891,11.999505 9.4998915,22.499504 20.499891,22.499978 Z m -1.999999,4.799999 0,3.7 -3.9,0 z" />
</svg>
