<?xml version="1.0" encoding="UTF-8" standalone="no"?>
<svg
   xmlns:dc="http://purl.org/dc/elements/1.1/"
   xmlns:cc="http://creativecommons.org/ns#"
   xmlns:rdf="http://www.w3.org/1999/02/22-rdf-syntax-ns#"
   xmlns:svg="http://www.w3.org/2000/svg"
   xmlns="http://www.w3.org/2000/svg"
   xmlns:xlink="http://www.w3.org/1999/xlink"
   xmlns:sodipodi="http://sodipodi.sourceforge.net/DTD/sodipodi-0.dtd"
   xmlns:inkscape="http://www.inkscape.org/namespaces/inkscape"
   width="128"
   viewBox="0 0 128 128"
   version="1.0"
   style="display:inline;enable-background:new"
   id="svg11300"
   height="128"
   inkscape:version="0.91 r13725"
   sodipodi:docname="application-x-bittorrent.svg">
  <sodipodi:namedview
     pagecolor="#ffffff"
     bordercolor="#666666"
     borderopacity="1"
     objecttolerance="10"
     gridtolerance="10"
     guidetolerance="10"
     inkscape:pageopacity="0"
     inkscape:pageshadow="2"
     inkscape:window-width="1920"
     inkscape:window-height="1026"
     id="namedview36"
     showgrid="false"
     inkscape:zoom="5.2149125"
     inkscape:cx="88.006966"
     inkscape:cy="60.049209"
     inkscape:window-x="0"
     inkscape:window-y="0"
     inkscape:window-maximized="1"
     inkscape:current-layer="svg11300" />
  <metadata
     id="metadata155">
    <rdf:RDF>
      <cc:Work
         rdf:about="">
        <dc:format>image/svg+xml</dc:format>
        <dc:type
           rdf:resource="http://purl.org/dc/dcmitype/StillImage" />
        <dc:title>elementary Icon Template</dc:title>
      </cc:Work>
    </rdf:RDF>
  </metadata>
  <title
     id="title4162">elementary Icon Template</title>
  <defs
     id="defs3">
    <linearGradient
       id="linearGradient3702-501-757-6-946">
      <stop
         style="stop-color:#181818;stop-opacity:0"
         offset="0"
         id="stop3228" />
      <stop
         style="stop-color:#181818;stop-opacity:1"
         offset="0.5"
         id="stop3230" />
      <stop
         style="stop-color:#181818;stop-opacity:0"
         offset="1"
         id="stop3232" />
    </linearGradient>
    <linearGradient
       id="linearGradient3977">
      <stop
         style="stop-color:#ffffff;stop-opacity:1"
         offset="0"
         id="stop3979" />
      <stop
         style="stop-color:#ffffff;stop-opacity:0.23529412"
         offset="0"
         id="stop3981" />
      <stop
         style="stop-color:#ffffff;stop-opacity:0.15686275"
         offset="1"
         id="stop3983" />
      <stop
         style="stop-color:#ffffff;stop-opacity:0.39215687"
         offset="1"
         id="stop3985" />
    </linearGradient>
    <linearGradient
       id="linearGradient3600">
      <stop
         style="stop-color:#f4f4f4;stop-opacity:1"
         offset="0"
         id="stop3602" />
      <stop
         style="stop-color:#dbdbdb;stop-opacity:1"
         offset="1"
         id="stop3604" />
    </linearGradient>
    <linearGradient
       id="linearGradient3688-464-309-255">
      <stop
         style="stop-color:#181818;stop-opacity:1"
         offset="0"
         id="stop3094" />
      <stop
         style="stop-color:#181818;stop-opacity:0"
         offset="1"
         id="stop3096" />
    </linearGradient>
    <linearGradient
       y2="42.339119"
       y1="5.6608582"
       x2="23.99999"
       x1="23.99999"
       id="linearGradient3016-1"
       xlink:href="#linearGradient3977"
       gradientUnits="userSpaceOnUse"
       gradientTransform="matrix(2.4594595,0,0,3.1081081,4.97299,-14.594612)" />
    <linearGradient
       y2="47.013336"
       y1="0.98520643"
       x2="25.132275"
       x1="25.132275"
       id="linearGradient3019-0"
       xlink:href="#linearGradient3600"
       gradientUnits="userSpaceOnUse"
       gradientTransform="matrix(2.6571409,0,0,2.5422194,0.22862,-4.912883)" />
    <linearGradient
       y2="39.999443"
       y1="47.027729"
       x2="25.058096"
       x1="25.058096"
       id="linearGradient3024"
       xlink:href="#linearGradient3702-501-757-6-946"
       gradientUnits="userSpaceOnUse"
       gradientTransform="matrix(3.1428572,0,0,1.2857143,-11.42857,61.571377)" />
    <radialGradient
       r="2.5"
       id="radialGradient3027"
       xlink:href="#linearGradient3688-464-309-255"
       gradientUnits="userSpaceOnUse"
       gradientTransform="matrix(2.4045407,0,0,1.7999999,-32.01424,-195.79995)"
       fy="43.5"
       fx="4.9929786"
       cy="43.5"
       cx="4.9929786" />
    <radialGradient
       r="2.5"
       id="radialGradient3030"
       xlink:href="#linearGradient3688-464-309-255"
       gradientUnits="userSpaceOnUse"
       gradientTransform="matrix(2.4045407,0,0,1.7999999,95.98576,39.199947)"
       fy="43.5"
       fx="4.9929786"
       cy="43.5"
       cx="4.9929786" />
  </defs>
  <path
     inkscape:connector-curvature="0"
     d="m 17.49993,1.500359 c 21.31106,0 93.00003,0.007 93.00003,0.007 l 1.1e-4,116.992631 -93.00014,0 0,-117.000082 z"
     id="path4160-63"
     style="display:inline;fill:#fafafa;fill-opacity:1;stroke:none" />
  <path
     inkscape:connector-curvature="0"
     d="m 17.49993,1.500359 c 21.31106,0 93.00003,0.007 93.00003,0.007 l 1.1e-4,116.992631 -93.00014,0 0,-117.000082 z"
     id="path4160-4"
     style="display:inline;opacity:0.3;fill:none;stroke:#000000;stroke-width:0.99992186;stroke-linecap:butt;stroke-linejoin:round;stroke-miterlimit:4;stroke-dasharray:none;stroke-dashoffset:0;stroke-opacity:1" />
  <path
     inkscape:connector-curvature="0"
     d="m 35.99996,70.996537 28,34.000013 28,-34.000013 -16,0.003 0,-12.00341 c 0,4 -4,4 -4,4 0,0 -4,0 -4,-4 0,-4 -4,-4 -4,-4 0,0 -4,0 -4,4 0,4 -4,4 -4,4 0,0 -4,0 -4,-4.00341 l 0,12.00341 z"
     id="path11053"
     style="color:#bebebe;display:inline;overflow:visible;visibility:visible;fill:#3689e6;fill-opacity:1;fill-rule:nonzero;stroke:none;stroke-width:1;marker:none;enable-background:accumulate" />
  <path
     inkscape:connector-curvature="0"
     d="m 63.99996,20.996527 c 0,0 -4,0 -4,4 0,4 -4,4 -4,4 0,0 -4,0.003 -4,-4 l 0,56 24,0 0,-56 c 0,4 -4,4 -4,4 0,0 -4,0 -4,-4 0,-4 -4,-4 -4,-4 z"
     id="path11077"
     style="color:#bebebe;display:inline;overflow:visible;visibility:visible;opacity:0.2;fill:#3689e6;fill-opacity:1;fill-rule:nonzero;stroke:none;stroke-width:1;marker:none;enable-background:accumulate" />
  <path
     inkscape:connector-curvature="0"
     d="m 55.99996,38.996527 c 0,0 -4,-0.003 -4,4 l 0,24 24,0 0,-24 c 0,-4 -4,-4 -4,-4 0,0 -4,0 -4,4 0,4 -4,4 -4,4 0,0 -4,0 -4,-4 0,-4 -4,-4 -4,-4 z"
     id="path11071"
     style="color:#bebebe;display:inline;overflow:visible;visibility:visible;opacity:0.5;fill:#3689e6;fill-opacity:1;fill-rule:nonzero;stroke:none;stroke-width:1;marker:none;enable-background:accumulate" />
</svg>
